# AST/ASF file generated using VICON BodyLanguage
# -----------------------------------------------
:version 1.10
:name VICON
:units
  mass 1.0
  length 0.45
  angle deg
:documentation
   .ast/.asf automatically generated from VICON data using
   VICON BodyBuilder and BodyLanguage model FoxedUp or BRILLIANT.MOD
:root
   order TX TY TZ RX RY RZ
   axis XYZ
   position 0 0 0  
   orientation 0 0 0 
:bonedata
  begin
     id 1 
     name lhipjoint
     direction 0.612567 -0.751349 0.245431 
     length 2.42285 
     axis 0 0 0  XYZ
  end
  begin
     id 2 
     name lfemur
     direction 0.34202 -0.939693 0  
     length 7.11304  
     axis 0 0 20  XYZ
    dof rx ry rz
    limits (-160.0 20.0)
           (-70.0 70.0)
           (-60.0 70.0)
  end
  begin
     id 3 
     name ltibia
     direction 0.34202 -0.939693 0   
     length 7.84529   
     axis 0 0 20   XYZ
    dof rx
    limits (-10.0 170.0)
  end
  begin
     id 4 
     name lfoot
     direction 0.0779239 -0.214094 0.9737   
     length 1.97176   
     axis -90 7.62852e-016 20   XYZ
    dof rx rz
    limits (-45.0 90.0)
           (-70.0 20.0)
  end
  begin
     id 5 
     name ltoes
     direction 1.53565e-011 -4.21709e-011 1   
     length 0.993197   
     axis -90 7.62852e-016 20   XYZ
    dof rx
    limits (-90.0 20.0)
  end
  begin
     id 6 
     name rhipjoint
     direction -0.665722 -0.709315 0.231701   
     length 2.56642  
     axis 0 0 0  XYZ 
  end
  begin
     id 7 
     name rfemur
     direction -0.34202 -0.939693 0   
     length 7.32108   
     axis 0 0 -20   XYZ
    dof rx ry rz
    limits (-160.0 20.0)
           (-70.0 70.0)
           (-70.0 60.0)
  end
  begin
     id 8 
     name rtibia
     direction -0.34202 -0.939693 0   
     length 7.81254   
     axis 0 0 -20   XYZ
    dof rx
    limits (-10.0 170.0)
 end
 begin
     id 9 
     name rfoot
     direction -0.0832806 -0.228812 0.969902   
     length 2.08278  
     axis -90 -7.62852e-016 -20   XYZ
    dof rx rz
    limits (-45.0 90.0)
           (-20.0 70.0)
  end
  begin
     id 10 
     name rtoes
     direction -1.53589e-011 -4.22086e-011 1   
     length 1.04609   
     axis -90 -7.62852e-016 -20   XYZ
    dof rx
    limits (-90.0 20.0)
  end
  begin
     id 11 
     name lowerback
     direction -0.00506013 0.988403 -0.151766   
     length 2.01978   
     axis 0 0 0   XYZ
    dof rx ry rz
    limits (-20.0 45.0)
           (-30.0 30.0)
           (-30.0 30.0)
  end
  begin
     id 12 
     name upperback
     direction -0.00836389 0.99968 0.0238859   
     length 2.01276   
     axis 0 0 0   XYZ
    dof rx ry rz
    limits (-20.0 45.0)
           (-30.0 30.0)
           (-30.0 30.0)
  end
  begin
     id 13 
     name thorax
     direction -0.00684136 0.995386 0.0957043   
     length 2.07303   
     axis 0 0 0   XYZ
    dof rx ry rz
    limits (-20.0 45.0)
           (-30.0 30.0)
           (-30.0 30.0)
  end
  begin
     id 14 
     name lowerneck
     direction -0.0161045 0.999661 0.0204485   
     length 1.91243   
     axis 0 0 0   XYZ
    dof rx ry rz
    limits (-20.0 45.0)
           (-30.0 30.0)
           (-30.0 30.0)
  end
  begin
     id 15 
     name upperneck
     direction 0.0553583 0.990946 -0.122319   
     length 1.91574   
     axis 0 0 0   XYZ
    dof rx ry rz
    limits (-20.0 45.0)
           (-30.0 30.0)
           (-30.0 30.0)
  end
  begin
     id 16
     name head
     direction 0.0180273 0.998839 -0.0446756  
     length 1.92693  
     axis 0 0 0   XYZ
    dof rx ry rz
    limits (-20.0 45.0)
           (-30.0 30.0)
           (-30.0 30.0)
  end
  begin
     id 17 
     name lclavicle
     direction 0.945646 0.319323 -0.0615358  
     length 4.0076  
     axis 0 0 0   XYZ
    dof ry rz
    limits (-20.0 10.0)
           (0.0 20.0)
  end
  begin
     id 18 
     name lhumerus
     direction 1 -4.48967e-011 -2.79996e-027   
     length 5.64147   
     axis 180 -30 -90   XYZ
    dof rx ry rz
    limits (-60.0 90.0)
           (-90.0 90.0)
           (-90.0 90.0)
  end
  begin
     id 19
     name lradius
     direction 1 -4.48976e-011 -9.5122e-027   
     length 2.86444   
     axis 180 -30 -90   XYZ
    dof rx
    limits (-10.0 170.0)
  end
  begin
     id 20
     name lwrist
     direction 1 -4.48983e-011 -1.24047e-026   
     length 1.43222   
     axis 9.05591e-015 90 90   XYZ
    dof ry
    limits (-180.0 0.0)
 end
  begin
     id 21 
     name lhand
     direction 1 -4.4892e-011 -2.48094e-026   
     length 0.722123   
     axis 1.58305e-014 90 90   XYZ
    dof rx rz
    limits (-90.0 90.0)
           (-45.0 45.0)
  end
  begin
     id 22 
     name lfingers
     direction 1 -4.48895e-011 -4.96187e-026   
     length 0.582194   
     axis 3.1661e-014 90 90   XYZ
    dof rx
    limits (0.0 90.0)
  end
  begin
     id 23
     name lthumb
     direction 0.707107 -6.34961e-011 0.707107   
     length 0.835918   
     axis -90 45 2.85299e-015   XYZ
    dof rx rz
    limits (-45.0 45.0)
           (-45.0 45.0)
  end
  begin
     id 24 
     name rclavicle
     direction -0.932635 0.324218 -0.15835   
     length 3.65819  
     axis 0 0 0   XYZ 
    dof ry rz
    limits (-10.0 20.0)
           (-20.0 0.0)
  end
  begin
     id 25 
     name rhumerus
     direction -1 -4.48965e-011 -4.02296e-027  
     length 5.44729   
     axis 180 30 90   XYZ
    dof rx ry rz
    limits (-90.0 60.0)
           (-90.0 90.0)
           (-90.0 90.0)
  end
  begin
     id 26 
     name rradius
     direction -1 -4.48957e-011 -8.81087e-027   
     length 3.08821   
     axis 180 30 90   XYZ
    dof rx
    limits (-10.0 170.0)
  end
  begin
     id 27 
     name rwrist
     direction -1 -4.49015e-011 -1.24047e-026   
     length 1.5441   
     axis 9.05591e-015 -90 -90   XYZ
    dof ry
    limits (-180.0 0.0)
  end
  begin
     id 28
     name rhand
     direction -1 -4.4891e-011 -2.48094e-026   
     length 0.821049   
     axis 1.58305e-014 -90 -90   XYZ
    dof rx rz
    limits (-90.0 90.0)
           (-45.0 45.0)
  end
  begin
     id 29
     name rfingers
     direction -1 -4.48985e-011 -4.96187e-026   
     length 0.661951   
     axis 3.1661e-014 -90 -90   XYZ
    dof rx
    limits (0.0 90.0)
  end
  begin
     id 30
     name rthumb
     direction -0.707107 -6.34906e-011 0.707107   
     length 0.950433   
     axis -90 -45 -2.85299e-015   XYZ
    dof rx rz
    limits (-45.0 45.0)
           (-45.0 45.0)
  end
:hierarchy
  begin
    root lhipjoint rhipjoint lowerback
    lhipjoint lfemur
    lfemur ltibia
    ltibia lfoot
    lfoot ltoes
    rhipjoint rfemur
    rfemur rtibia
    rtibia rfoot
    rfoot rtoes
    lowerback upperback
    upperback thorax
    thorax lowerneck lclavicle rclavicle
    lowerneck upperneck
    upperneck head
    lclavicle lhumerus
    lhumerus lradius
    lradius lwrist
    lwrist lhand lthumb
    lhand lfingers
    rclavicle rhumerus
    rhumerus rradius
    rradius rwrist
    rwrist rhand rthumb
    rhand rfingers
  end

#!OML:ASF F:\VICON\USERDATA\INSTALL\rory3\rory3.ASF
:FULLY-SPECIFIED
:DEGREES
826
root 2.31365 17.6914 -0.954181 379.271 54.4232 363.667
lowerback 24.9771 -3.84667 0.721082
upperback 14.2425 -3.90112 1.15432
thorax 1.96041 -1.6415 1.72013
lowerneck 0.218859 -4.91062 -3.63006
upperneck -8.51766 -5.8356 12.4554
head -2.04106 -3.18581 4.43289
rclavicle 4.76089e-014 -1.47598e-014
rhumerus -17.4767 13.0926 -83.8932
rradius 47.826
rwrist -7.05331
rhand -13.9109 5.6475
rfingers 7.12502
rthumb 12.215 -23.9758
lclavicle 4.76089e-014 -1.47598e-014
lhumerus -39.6372 -31.5545 87.2343
lradius 55.2479
lwrist 55.2613
lhand -21.7925 6.04659
lfingers 7.12502
lthumb 4.60916 35.9764
rfemur -34.5723 16.8714 6.60732
rtibia 21.9
rfoot -5.53346 1.68044
rtoes 0.0528241
lfemur -23.5001 15.6938 -27.1318
ltibia 19.7091
lfoot -17.3832 12.7365
ltoes 2.03059
827
root 2.29603 17.6808 -0.96419 379.685 54.0344 363.883
lowerback 25.2898 -3.78178 0.577952
upperback 14.5633 -3.81545 1.09646
thorax 2.18313 -1.59702 1.72629
lowerneck 0.56202 -4.87233 -3.19992
upperneck -8.87259 -5.76861 12.0682
head -2.23671 -3.17561 4.26416
rclavicle -4.58696e-014 4.67392e-014
rhumerus -17.1005 12.6014 -84.0275
rradius 47.7201
rwrist -7.15355
rhand -14.2511 5.34417
rfingers 7.12502
rthumb 11.887 -24.2984
lclavicle -4.58696e-014 4.67392e-014
lhumerus -39.1755 -31.65 86.911
lradius 55.9476
lwrist 55.1846
lhand -22.0104 5.66984
lfingers 7.12502
lthumb 4.39872 35.6042
rfemur -35.2137 17.1495 6.17662
rtibia 22.2025
rfoot -5.60975 1.6634
rtoes 0.579739
lfemur -24.1313 16.0872 -27.5184
ltibia 20.1843
lfoot -17.4947 12.6102
ltoes 1.81657
828
root 2.27613 17.6688 -0.973594 379.916 53.6752 363.912
lowerback 25.7282 -3.71588 0.477693
upperback 14.8316 -3.71794 1.07119
thorax 2.2889 -1.546 1.74827
lowerneck 1.10025 -4.82957 -3.04703
upperneck -9.30801 -5.67412 12.0074
head -2.46978 -3.16084 4.24716
rclavicle 8.69186e-014 -4.74847e-014
rhumerus -16.8014 12.1406 -84.1975
rradius 47.6477
rwrist -7.35859
rhand -14.5174 5.02006
rfingers 7.12502
rthumb 11.6301 -24.6372
lclavicle 8.69186e-014 -4.74847e-014
lhumerus -38.7616 -31.7672 86.669
lradius 56.5097
lwrist 55.0912
lhand -22.1911 5.48289
lfingers 7.12502
lthumb 4.22425 35.4208
rfemur -35.8014 17.4196 5.90261
rtibia 22.4472
rfoot -5.63565 1.64526
rtoes 0.631397
lfemur -24.7599 16.4257 -27.7366
ltibia 20.7059
lfoot -17.6765 12.4648
ltoes 2.23603
829
root 2.25761 17.6561 -0.981343 380.005 53.2791 363.808
lowerback 26.2428 -3.58539 0.447361
upperback 15.0758 -3.5247 1.06296
thorax 2.32793 -1.44374 1.73089
lowerneck 1.6076 -4.83379 -3.0448
upperneck -9.71353 -5.63557 12.1495
head -2.67281 -3.17456 4.31548
rclavicle -1.05952e-013 4.74598e-014
rhumerus -16.5923 11.6116 -84.3271
rradius 47.6153
rwrist -7.6778
rhand -14.7218 4.9027
rfingers 7.12502
rthumb 11.4331 -24.7656
lclavicle -1.05952e-013 4.74598e-014
lhumerus -38.3363 -32.0362 86.459
lradius 57.0237
lwrist 55.0358
lhand -22.1276 5.34801
lfingers 7.12502
lthumb 4.28553 35.2846
rfemur -36.3465 17.7076 5.72712
rtibia 22.67
rfoot -5.605 1.68011
rtoes 0.642992
lfemur -25.3347 16.8118 -27.8646
ltibia 21.23
lfoot -17.8495 12.3026
ltoes 2.42916
830
root 2.24106 17.644 -0.988498 380.121 52.9394 363.704
lowerback 26.693 -3.49541 0.489405
upperback 15.3184 -3.37027 1.0341
thorax 2.39249 -1.35515 1.65487
lowerneck 1.77736 -4.81436 -3.02786
upperneck -9.89306 -5.58057 12.3025
head -2.75404 -3.16457 4.36858
rclavicle -9.98396e-014 4.67392e-014
rhumerus -16.3712 11.1236 -84.5052
rradius 47.5561
rwrist -8.00729
rhand -14.8749 4.76501
rfingers 7.12502
rthumb 11.2854 -24.9114
lclavicle -9.98396e-014 4.67392e-014
lhumerus -37.8444 -32.2671 86.1695
lradius 57.444
lwrist 54.7373
lhand -21.8909 5.13221
lfingers 7.12502
lthumb 4.51414 35.0641
rfemur -36.8975 17.9641 5.55091
rtibia 22.8844
rfoot -5.61596 1.68757
rtoes 0.934086
lfemur -25.9279 17.1989 -28.0128
ltibia 21.7627
lfoot -17.9395 12.201
ltoes 1.92966
831
root 2.22659 17.6316 -0.996279 380.381 52.6443 363.705
lowerback 27.0731 -3.46984 0.474155
upperback 15.5141 -3.31434 1.00091
thorax 2.44328 -1.32071 1.62655
lowerneck 1.90022 -4.76021 -3.08175
upperneck -10.0338 -5.48707 12.4308
head -2.81759 -3.12949 4.42284
rclavicle 3.60794e-014 3.75952e-014
rhumerus -16.209 10.9204 -84.6403
rradius 47.5405
rwrist -8.38643
rhand -15.1094 4.62483
rfingers 7.12502
rthumb 11.0592 -25.0638
lclavicle 3.60794e-014 3.75952e-014
lhumerus -37.4338 -32.2413 85.9226
lradius 57.7976
lwrist 54.2231
lhand -21.8193 4.99611
lfingers 7.12502
lthumb 4.58323 34.9265
rfemur -37.5167 18.1677 5.29761
rtibia 23.1282
rfoot -5.63967 1.66211
rtoes 1.28728
lfemur -26.5792 17.4147 -28.2086
ltibia 22.2583
lfoot -18.048 12.1799
ltoes 1.44
832
root 2.21132 17.6192 -1.0029 380.605 52.3557 363.709
lowerback 27.5284 -3.41929 0.413378
upperback 15.6661 -3.23615 1.00948
thorax 2.41614 -1.2809 1.66766
lowerneck 1.94062 -4.7324 -3.20216
upperneck -10.1346 -5.43799 12.5488
head -2.8502 -3.11028 4.48191
rclavicle -1.635e-014 1.56543e-015
rhumerus -16.1884 10.8766 -84.6447
rradius 47.5692
rwrist -8.75448
rhand -15.4234 4.72427
rfingers 7.12502
rthumb 10.7564 -24.9803
lclavicle -1.635e-014 1.56543e-015
lhumerus -37.0839 -32.1645 85.7731
lradius 58.1905
lwrist 53.984
lhand -21.7805 5.04374
lfingers 7.12502
lthumb 4.62068 34.9733
rfemur -38.0872 18.346 5.07255
rtibia 23.3777
rfoot -5.66158 1.64605
rtoes 0.991509
lfemur -27.1598 17.6007 -28.379
ltibia 22.7107
lfoot -18.176 12.1547
ltoes 1.71882
833
root 2.19836 17.6068 -1.00525 380.898 52.0199 363.811
lowerback 27.8777 -3.33233 0.438828
upperback 15.83 -3.1004 0.929125
thorax 2.43908 -1.2018 1.54367
lowerneck 1.94432 -4.76557 -3.2973
upperneck -10.2667 -5.45611 12.7957
head -2.87682 -3.13054 4.57708
rclavicle -5.86415e-015 3.35449e-015
rhumerus -16.2008 10.658 -84.7627
rradius 47.5209
rwrist -9.03587
rhand -15.7051 4.95596
rfingers 7.12502
rthumb 10.4846 -24.7626
lclavicle -5.86415e-015 3.35449e-015
lhumerus -36.6792 -32.3535 85.5202
lradius 58.509
lwrist 53.9565
lhand -21.4813 5.15253
lfingers 7.12502
lthumb 4.90966 35.0756
rfemur -38.6531 18.5299 4.79034
rtibia 23.6498
rfoot -5.67354 1.65756
rtoes 0.57339
lfemur -27.671 17.9554 -28.683
ltibia 23.0748
lfoot -18.2312 12.1252
ltoes 1.39355
834
root 2.19074 17.5982 -1.00881 381.116 51.7496 363.818
lowerback 28.0956 -3.35601 0.685633
upperback 16.0205 -3.05985 0.733656
thorax 2.53599 -1.14785 1.18595
lowerneck 2.0232 -4.76966 -3.2074
upperneck -10.5022 -5.41622 13.0038
head -2.95904 -3.13257 4.63458
rclavicle -1.58779e-014 -5.41937e-014
rhumerus -16.1739 10.4297 -85.1288
rradius 47.3929
rwrist -9.20335
rhand -15.9255 5.07621
rfingers 7.12502
rthumb 10.272 -24.653
lclavicle -1.58779e-014 -5.41937e-014
lhumerus -36.357 -32.6383 85.1338
lradius 58.8121
lwrist 53.9288
lhand -21.2803 5.08829
lfingers 7.12502
lthumb 5.10367 35.0068
rfemur -39.1571 18.6596 4.59933
rtibia 23.9139
rfoot -5.72885 1.7137
rtoes 0.671128
lfemur -28.1421 18.2367 -28.9009
ltibia 23.3991
lfoot -18.3916 12.0339
ltoes 1.2348
